<svg width="24px" height="24px" viewBox="0 0 24 24" xmlns="http://www.w3.org/2000/svg">
	<defs>
		<style>.balancer-1{fill:none;}.balancer-2{fill:#00a4b8;}.balancer-3{fill:#0094a6;}.cls-4{fill:#008b9c;}</style>
	</defs>
	<title>balancer</title>
	<g>
		<g>
			<rect class="balancer-1" width="24" height="24"/>
			<g>
				<rect class="balancer-2" x="18" y="12" width="2" height="4"/>
				<rect class="balancer-2" x="11" y="12" width="2" height="4"/>
				<rect class="balancer-2" x="4" y="12" width="2" height="4"/>
				<polygon id="Fill-2" class="balancer-3" points="13 11 11 11 11 7 13 7 13 11"/>
				<rect class="balancer-2" x="4" y="11" width="16" height="2"/>
				<rect class="cls-4" x="6" y="2" width="12" height="5"/>
				<rect class="balancer-2" x="12" y="2" width="6" height="5"/>
				<rect class="cls-4" x="16" y="16" width="6" height="6"/>
				<rect class="cls-4" x="2" y="16" width="6" height="6"/>
				<rect class="balancer-2" x="5" y="16" width="3" height="6"/>
				<rect class="cls-4" x="9" y="16" width="6" height="6"/>
				<rect class="balancer-2" x="12" y="16" width="3" height="6"/>
				<rect class="balancer-2" x="19" y="16" width="3" height="6"/>
			</g>
		</g>
	</g>
</svg>
